# xmcd
#
# Track frame offsets:
#	150
#	30175
#	63613
#	87563
#	153438
#	163213
#	202925
#	244825
#	274838
#
# Disc length: 3909 seconds
#
# Revision: 1
# Processed by: cddbd v1.5.2PL0 Copyright (c) Steve Scherf et al.
# Submitted via: audiograbber 1.83.01
#
DISCID=760f4309
DTITLE=Dire Straits - Live on US Radio
DYEAR=1992
DGENRE=Rock
TTITLE0=Your Latest Trick
TTITLE1=On Every Street
TTITLE2=Two Young Lovers
TTITLE3=Telegraph Road
TTITLE4=Money For Nothing1
TTITLE5=Money For Nothing2
TTITLE6=Brothers in Arms
TTITLE7=Solid Rock
TTITLE8=Going Home
EXTD=
EXTT0=
EXTT1=
EXTT2=
EXTT3=
EXTT4=
EXTT5=
EXTT6=
EXTT7=
EXTT8=
PLAYORDER=
